# xmcd
#
# Track frame offsets:
#	150
#	17297
#	32281
#	46063
#	67333
#	81815
#	99264
#	112568
#	122639
#	139134
#	140336
#	166186
#	183136
#	185416
#	207862
#
# Disc length: 2889 seconds
#
# Revision: 1
# Processed by: cddbd v1.4PL0 Copyright (c) Steve Scherf et al.
# Submitted via: audiograbber 1.81.03
#
DISCID=b20b470f
DTITLE=Steve James - Boom Chang
DYEAR=2000
DGENRE=Blues
TTITLE0=Galway Station Blues
TTITLE1=The Gina Reel
TTITLE2=Way Out On The Desert
TTITLE3=Stack Lee's Blues
TTITLE4=Born To Lose
TTITLE5=Country Fool
TTITLE6=Squaw Teat Mouintain Breakdown
TTITLE7=Willie's Place
TTITLE8=Been All Around This World
TTITLE9=Voice Mail
TTITLE10=Sonny Payne
TTITLE11=Saturday Night In Jail
TTITLE12=Saturday Night In Jail... Chorus Reprise
TTITLE13=Seeds
TTITLE14=bonus
EXTD=
EXTT0=
EXTT1=
EXTT2=
EXTT3=
EXTT4=
EXTT5=
EXTT6=
EXTT7=
EXTT8=
EXTT9=
EXTT10=
EXTT11=
EXTT12=
EXTT13=
EXTT14=
PLAYORDER=
